<?xml version="1.0" standalone="no"?>
<!DOCTYPE svg PUBLIC "-//W3C//DTD SVG 20010904//EN"
 "http://www.w3.org/TR/2001/REC-SVG-20010904/DTD/svg10.dtd">
<svg version="1.0" xmlns="http://www.w3.org/2000/svg"
 width="96.000000pt" height="96.000000pt" viewBox="0 0 96.000000 96.000000"
 preserveAspectRatio="xMidYMid meet">

<g transform="translate(0.000000,96.000000) scale(0.100000,-0.100000)"
fill="#000000" stroke="none">
<path d="M777 738 c-14 -32 -13 -35 22 -74 20 -22 39 -38 43 -35 5 5 58 129
58 138 0 2 -25 3 -55 3 -53 0 -56 -1 -68 -32z"/>
<path d="M367 720 c-54 -15 -100 -30 -103 -33 -7 -7 -193 -456 -200 -483 -5
-21 -5 -21 55 -5 l61 15 71 175 c39 96 76 185 81 197 8 16 27 26 76 39 l65 16
34 -32 c38 -37 39 -47 17 -106 -16 -42 -18 -43 -103 -68 -47 -14 -90 -27 -95
-28 -8 -3 -59 -118 -53 -122 1 -1 71 19 156 44 l154 47 44 104 43 104 -82 83
c-52 52 -90 83 -103 82 -11 0 -64 -13 -118 -29z"/>
<path d="M732 625 c-39 -85 -113 -277 -109 -282 3 -3 31 3 62 14 l57 18 39 94
c22 51 39 99 39 105 0 12 -61 76 -71 76 -3 0 -11 -11 -17 -25z"/>
</g>
</svg>
