<?xml version="1.0" standalone="no"?>
<!DOCTYPE svg PUBLIC "-//W3C//DTD SVG 20010904//EN"
 "http://www.w3.org/TR/2001/REC-SVG-20010904/DTD/svg10.dtd">
<svg version="1.0" xmlns="http://www.w3.org/2000/svg"
 width="96.000000pt" height="96.000000pt" viewBox="0 0 96.000000 96.000000"
 preserveAspectRatio="xMidYMid meet">

<g transform="translate(0.000000,96.000000) scale(0.100000,-0.100000)"
fill="#000000" stroke="none">
<path d="M654 738 c-26 -35 -52 -69 -57 -75 -7 -10 -4 -13 11 -13 11 0 23 8
26 18 4 10 22 44 40 75 19 31 33 57 31 57 -2 0 -25 -28 -51 -62z"/>
<path d="M549 713 c-30 -32 -68 -75 -83 -95 -16 -21 -33 -38 -40 -38 -23 -1
-174 -68 -241 -108 -87 -51 -146 -98 -73 -58 51 29 225 99 271 110 l28 7 -20
-38 c-56 -110 -109 -321 -85 -336 5 -2 32 -12 59 -20 l51 -15 -10 60 c-12 73
4 201 38 294 13 36 26 67 29 70 13 14 171 35 298 41 l146 6 -15 40 -16 40 -71
-7 c-38 -3 -113 -15 -165 -26 -52 -12 -108 -24 -124 -27 l-29 -6 44 63 c24 34
50 71 58 81 26 36 4 19 -50 -38z"/>
<path d="M529 523 c-32 -81 -60 -222 -57 -287 l3 -68 56 -18 56 -17 -14 46
c-19 60 -19 238 0 314 l14 57 -24 0 c-16 0 -27 -8 -34 -27z"/>
</g>
</svg>
