<?xml version="1.0" standalone="no"?>
<!DOCTYPE svg PUBLIC "-//W3C//DTD SVG 20010904//EN"
 "http://www.w3.org/TR/2001/REC-SVG-20010904/DTD/svg10.dtd">
<svg version="1.0" xmlns="http://www.w3.org/2000/svg"
 width="282.000000pt" height="74.000000pt" viewBox="0 0 282.000000 74.000000"
 preserveAspectRatio="xMidYMid meet">

<g transform="translate(0.000000,74.000000) scale(0.100000,-0.100000)"
fill="#000000" stroke="none">
<path d="M2086 644 c-23 -22 -20 -41 8 -59 31 -21 66 -5 66 28 0 44 -43 62
-74 31z"/>
<path d="M2475 651 c-19 -8 -19 -8 3 -20 21 -11 22 -17 22 -161 0 -127 -2
-150 -15 -150 -8 0 -15 -4 -15 -10 0 -6 30 -10 70 -10 40 0 70 4 70 10 0 6 -7
10 -15 10 -11 0 -15 11 -15 40 0 22 3 40 8 40 4 0 22 -22 40 -50 33 -50 33
-50 87 -50 30 0 55 5 55 10 0 6 -6 10 -14 10 -8 0 -36 30 -61 67 l-47 67 28
23 c16 13 39 26 52 29 42 11 22 24 -38 24 -33 0 -60 -4 -60 -10 0 -5 7 -10 15
-10 24 0 18 -13 -25 -55 l-40 -39 0 122 0 122 -42 -1 c-24 0 -52 -4 -63 -8z"/>
<path d="M787 608 c-14 -32 -13 -35 22 -74 20 -22 39 -38 43 -35 5 5 58 129
58 138 0 2 -25 3 -55 3 -53 0 -56 -1 -68 -32z"/>
<path d="M1000 621 c0 -5 9 -13 20 -16 19 -6 20 -15 20 -146 0 -132 -1 -139
-20 -139 -11 0 -20 -4 -20 -10 0 -6 37 -10 90 -10 50 0 90 2 90 5 0 3 -11 10
-25 15 -23 9 -25 15 -25 65 l0 55 38 0 c60 1 118 32 131 73 16 48 0 84 -44
102 -39 17 -255 21 -255 6z m191 -30 c48 -38 18 -131 -42 -131 -17 0 -19 8
-19 75 0 67 2 75 19 75 10 0 29 -8 42 -19z"/>
<path d="M377 590 c-54 -15 -100 -30 -103 -33 -7 -7 -193 -456 -200 -483 -5
-21 -5 -21 55 -5 l61 15 71 175 c39 96 76 185 81 197 8 16 27 26 76 39 l65 16
34 -32 c38 -37 39 -47 17 -106 -16 -42 -18 -43 -103 -68 -47 -14 -90 -27 -95
-28 -8 -3 -59 -118 -53 -122 1 -1 71 19 156 44 l154 47 44 104 43 104 -82 83
c-52 52 -90 83 -103 82 -11 0 -64 -13 -118 -29z"/>
<path d="M1640 565 c0 -28 -4 -35 -20 -35 -11 0 -20 -7 -20 -15 0 -8 9 -15 20
-15 18 0 20 -7 20 -85 0 -96 16 -125 69 -125 39 0 84 17 76 30 -3 5 -12 7 -20
3 -32 -12 -45 16 -45 98 l0 79 30 0 c20 0 30 5 30 15 0 10 -10 15 -30 15 -28
0 -30 3 -30 35 0 34 -1 35 -40 35 -39 0 -40 -1 -40 -35z"/>
<path d="M1404 530 c-17 -5 -39 -19 -49 -30 -15 -16 -16 -22 -5 -35 8 -9 25
-15 39 -13 20 2 27 9 29 31 2 16 10 31 18 34 22 8 45 -17 42 -46 -3 -22 -12
-29 -63 -46 -63 -22 -90 -52 -79 -90 13 -43 79 -61 119 -31 16 12 22 12 41 -1
26 -17 86 -14 92 5 2 6 -3 12 -11 12 -22 0 -27 23 -20 93 5 57 3 66 -18 90
-27 30 -85 42 -135 27z m74 -152 c-3 -38 -6 -43 -30 -46 -38 -5 -48 31 -17 64
35 37 51 31 47 -18z"/>
<path d="M1943 520 c-27 -16 -33 -17 -33 -5 0 11 -13 15 -55 15 -30 0 -55 -2
-55 -5 0 -3 9 -14 20 -25 16 -16 20 -33 20 -94 0 -65 -3 -75 -22 -89 -22 -15
-18 -16 60 -16 45 -1 82 1 82 4 0 3 -11 10 -25 15 -23 9 -25 14 -25 78 0 55 4
72 19 86 18 16 19 16 25 -7 7 -30 31 -41 57 -27 26 14 26 66 0 80 -26 14 -31
13 -68 -10z"/>
<path d="M2294 521 c-42 -19 -74 -67 -74 -111 0 -113 157 -162 227 -71 19 26
3 34 -21 12 -30 -28 -80 -28 -100 1 -21 30 -21 117 0 146 23 34 48 24 48 -18
1 -32 4 -35 33 -38 60 -6 53 65 -8 87 -43 15 -57 14 -105 -8z"/>
<path d="M2045 521 c-3 -5 4 -12 15 -16 18 -6 20 -15 20 -96 0 -72 -3 -89 -15
-89 -8 0 -15 -4 -15 -10 0 -6 32 -10 78 -9 73 0 76 1 55 16 -21 14 -23 23 -23
114 l0 99 -54 0 c-30 0 -57 -4 -61 -9z"/>
<path d="M742 495 c-39 -85 -113 -277 -109 -282 3 -3 31 3 62 14 l57 18 39 94
c22 51 39 99 39 105 0 12 -61 76 -71 76 -3 0 -11 -11 -17 -25z"/>
<path d="M1038 195 c5 -71 17 -71 17 0 0 30 -4 55 -10 55 -6 0 -9 -23 -7 -55z"/>
<path d="M1930 196 c0 -25 5 -48 10 -51 6 -4 10 13 10 44 0 28 -4 51 -10 51
-5 0 -10 -20 -10 -44z"/>
<path d="M2720 192 c0 -29 3 -52 8 -52 8 0 7 88 -2 97 -3 4 -6 -17 -6 -45z"/>
<path d="M1203 180 c0 -25 2 -35 4 -22 2 12 2 32 0 45 -2 12 -4 2 -4 -23z"/>
<path d="M1237 213 c6 -4 13 -24 16 -43 4 -34 4 -33 3 4 -1 26 -6 41 -16 43
-10 3 -11 2 -3 -4z"/>
<path d="M1390 217 c0 -15 30 -80 36 -74 3 3 -4 22 -15 44 -11 21 -20 34 -21
30z"/>
<path d="M1617 201 c3 -12 9 -21 14 -21 14 0 11 16 -5 29 -12 10 -13 8 -9 -8z"/>
<path d="M2090 182 c0 -23 3 -42 8 -42 9 0 9 66 -1 76 -4 4 -7 -11 -7 -34z"/>
<path d="M2128 213 c6 -2 12 -20 12 -39 0 -19 5 -34 10 -34 6 0 10 15 10 34 0
31 -15 48 -38 45 -4 0 -1 -3 6 -6z"/>
<path d="M2178 213 c6 -2 12 -20 12 -39 0 -19 5 -34 10 -34 11 0 13 39 4 64
-3 9 -14 16 -23 15 -10 0 -11 -2 -3 -6z"/>
<path d="M2377 201 c3 -12 9 -21 14 -21 14 0 11 16 -5 29 -12 10 -13 8 -9 -8z"/>
<path d="M2520 181 c0 -23 5 -41 10 -41 6 0 10 15 10 34 0 19 -4 38 -10 41 -6
4 -10 -10 -10 -34z"/>
<path d="M2569 207 c7 -9 11 -28 9 -42 -3 -14 -1 -25 4 -25 16 0 4 73 -12 78
-13 5 -13 3 -1 -11z"/>
<path d="M1577 203 c-15 -15 -6 -53 16 -64 21 -12 21 -11 5 8 -10 10 -16 29
-13 41 4 23 3 26 -8 15z"/>
<path d="M1755 200 c-3 -5 8 -18 25 -30 16 -12 30 -18 30 -14 0 13 -50 53 -55
44z"/>
<path d="M2335 199 c-11 -16 3 -56 22 -63 16 -6 16 -6 0 12 -9 10 -15 28 -12
40 4 24 0 28 -10 11z"/>
<path d="M1750 150 c0 -5 5 -10 11 -10 5 0 7 5 4 10 -3 6 -8 10 -11 10 -2 0
-4 -4 -4 -10z"/>
</g>
</svg>
