<?xml version="1.0" standalone="no"?>
<!DOCTYPE svg PUBLIC "-//W3C//DTD SVG 20010904//EN"
 "http://www.w3.org/TR/2001/REC-SVG-20010904/DTD/svg10.dtd">
<svg version="1.0" xmlns="http://www.w3.org/2000/svg"
 width="217.000000pt" height="74.000000pt" viewBox="0 0 217.000000 74.000000"
 preserveAspectRatio="xMidYMid meet">

<g transform="translate(0.000000,74.000000) scale(0.100000,-0.100000)"
fill="#000000" stroke="none">
<path d="M664 628 c-26 -35 -52 -69 -57 -75 -7 -10 -4 -13 11 -13 11 0 23 8
26 18 4 10 22 44 40 75 19 31 33 57 31 57 -2 0 -25 -28 -51 -62z"/>
<path d="M559 603 c-30 -32 -68 -75 -83 -95 -16 -21 -33 -38 -40 -38 -23 -1
-174 -68 -241 -108 -87 -51 -146 -98 -73 -58 51 29 225 99 271 110 l28 7 -20
-38 c-56 -110 -109 -321 -85 -336 5 -2 32 -12 59 -20 l51 -15 -10 60 c-12 73
4 201 38 294 13 36 26 67 29 70 13 14 171 35 298 41 l146 6 -15 40 -16 40 -71
-7 c-38 -3 -113 -15 -165 -26 -52 -12 -108 -24 -124 -27 l-29 -6 44 63 c24 34
50 71 58 81 26 36 4 19 -50 -38z"/>
<path d="M1090 571 c-19 -5 -26 -14 -28 -39 -2 -20 -9 -32 -18 -32 -9 0 -14
-11 -14 -30 0 -20 5 -30 15 -30 12 0 15 -14 15 -62 0 -79 15 -135 40 -148 10
-5 39 -10 64 -10 46 0 46 0 46 34 0 30 -3 35 -27 38 -27 3 -28 5 -31 76 l-3
72 31 0 c27 0 30 3 30 30 0 27 -3 30 -30 30 -28 0 -30 2 -30 40 0 43 -6 46
-60 31z"/>
<path d="M1322 492 c-48 -26 -72 -68 -72 -127 0 -91 54 -145 145 -145 91 0
145 54 145 145 0 90 -57 146 -147 145 -21 -1 -53 -9 -71 -18z m108 -62 c25
-25 27 -95 4 -128 -20 -28 -58 -28 -78 0 -23 33 -21 103 4 128 11 11 27 20 35
20 8 0 24 -9 35 -20z"/>
<path d="M1713 498 c-13 -6 -23 -15 -23 -20 0 -4 -4 -8 -10 -8 -5 0 -10 7 -10
15 0 10 -11 15 -35 15 l-35 0 0 -140 0 -140 40 0 40 0 0 88 c0 93 14 132 49
132 34 0 41 -21 41 -122 l0 -98 45 0 44 0 3 101 c3 84 6 104 21 113 12 8 22 8
35 0 14 -9 18 -30 22 -110 l5 -99 43 -3 42 -3 0 101 c0 143 -24 190 -97 190
-15 0 -43 -9 -62 -21 -19 -11 -37 -16 -40 -11 -19 29 -78 39 -118 20z"/>
<path d="M539 413 c-32 -81 -60 -222 -57 -287 l3 -68 56 -18 56 -17 -14 46
c-19 60 -19 238 0 314 l14 57 -24 0 c-16 0 -27 -8 -34 -27z"/>
<path d="M1528 159 c-8 -25 8 -103 22 -107 12 -4 13 -2 3 9 -15 15 -17 76 -4
81 5 2 3 8 -4 15 -9 8 -15 9 -17 2z"/>
<path d="M1979 149 c-9 -6 -10 -9 -2 -9 7 0 13 -18 15 -42 2 -23 8 -43 16 -44
7 -1 8 0 2 3 -14 7 -13 80 2 85 8 3 7 6 -3 10 -9 3 -22 2 -30 -3z"/>
<path d="M1073 105 c0 -27 2 -38 4 -22 2 15 2 37 0 50 -2 12 -4 0 -4 -28z"/>
<path d="M1111 100 l2 -45 6 40 c5 34 10 40 31 40 21 0 26 -6 31 -40 l6 -40 2
36 c1 42 -15 60 -53 57 -24 -2 -26 -5 -25 -48z"/>
<path d="M1322 138 c-18 -18 -15 -53 6 -71 23 -21 33 -21 58 -2 18 14 17 14
-9 3 -23 -10 -30 -9 -45 5 -15 16 -14 17 26 17 34 0 42 4 42 18 0 24 -19 42
-45 42 -12 0 -26 -5 -33 -12z m66 -20 c3 -15 -4 -18 -32 -18 -39 0 -39 0 -30
25 9 22 58 16 62 -7z"/>
<path d="M1432 138 c-15 -15 3 -38 29 -38 23 0 34 -19 20 -33 -9 -9 -16 -8
-31 1 -11 7 -20 8 -20 3 0 -18 42 -24 58 -8 19 19 3 44 -31 49 -28 4 -19 23
10 23 12 -1 19 3 17 7 -8 12 -38 10 -52 -4z"/>
<path d="M1603 143 c-8 -3 -12 -21 -12 -46 l2 -42 6 40 c6 42 35 61 52 34 4
-7 11 -10 16 -6 16 17 -34 33 -64 20z"/>
<path d="M1698 140 c17 -7 22 -18 24 -47 l1 -38 4 33 c5 37 -10 62 -36 61 -11
0 -9 -3 7 -9z"/>
<path d="M1767 129 c-18 -25 -11 -56 15 -70 21 -11 58 -3 58 13 0 7 -5 6 -15
-2 -15 -12 -55 -5 -55 11 0 5 18 9 40 9 41 0 47 8 30 41 -14 25 -55 24 -73 -2z
m61 -1 c21 -21 13 -28 -28 -28 -38 0 -40 2 -30 20 12 22 40 26 58 8z"/>
<path d="M1893 143 c-7 -2 -13 -12 -13 -21 1 -15 2 -15 11 1 15 25 48 22 53
-5 3 -13 7 -32 9 -43 3 -14 5 -12 6 8 2 53 -25 77 -66 60z"/>
<path d="M1210 138 c0 -14 34 -78 42 -78 10 0 38 55 37 72 0 7 -8 -5 -18 -27
l-18 -40 -21 40 c-12 22 -21 37 -22 33z"/>
</g>
</svg>
